<?xml version="1.0" encoding="UTF-8" standalone="no"?>
<svg
   viewBox="0 0 92.45 19.89"
   version="1.1"
   id="svg38"
   width="92.449997"
   height="19.889999">
  <defs
     id="defs4">
    <style
       id="style2">.cls-1{fill:#fff;}.cls-2,.cls-3{fill:#fec144;}.cls-3,.cls-4{fill-rule:evenodd;}.cls-4{fill:#a67ff8;}
        </style>
  </defs>
  <g
     id="Layer_2">
    <g
       id="Layer_2-2">
      <path
         class="cls-1"
         d="m 44.49,12.417258 h -4.82 a 0.08,0.08 0 0 0 -0.09,0.09 v 1.54 a 2.11,2.11 0 0 0 0.5,1.45 1.66,1.66 0 0 0 1.3,0.56 1.72,1.72 0 0 0 1.15,-0.45 2,2 0 0 0 0.63,-1 0.23,0.23 0 0 1 0.23,-0.19 h 1.06 a 0.17,0.17 0 0 1 0.14,0.07 0.17,0.17 0 0 1 0,0.17 3,3 0 0 1 -1,2 3.29,3.29 0 0 1 -2.23,0.73 3.24,3.24 0 0 1 -2.4,-0.89 3.13,3.13 0 0 1 -0.9,-2.34 V 9.6072571 a 3.17,3.17 0 0 1 0.94,-2.38 3.68,3.68 0 0 1 4.82,0 3.17,3.17 0 0 1 0.88,2.38 v 2.6000009 a 0.19,0.19 0 0 1 -0.21,0.21 z M 40.08,8.2072571 a 2.13,2.13 0 0 0 -0.5,1.47 v 1.4100009 a 0.08,0.08 0 0 0 0.09,0.09 h 3.46 a 0.08,0.08 0 0 0 0.09,-0.09 V 9.6772571 a 2.09,2.09 0 0 0 -0.51,-1.47 1.69,1.69 0 0 0 -1.33,-0.6 1.63,1.63 0 0 0 -1.3,0.6 z"
         id="path8" />
      <path
         class="cls-1"
         d="m 35.498049,7.2872571 a 4.19,4.19 0 0 1 0.7,2.5800003 v 7.1200006 a 0.19,0.19 0 0 1 -0.21,0.21 h -1.06 a 0.19,0.19 0 0 1 -0.21,-0.21 V 9.9872577 a 2.86,2.86 0 0 0 -0.45,-1.7000006 1.44,1.44 0 0 0 -1.2,-0.62 1.51,1.51 0 0 0 -1.29,0.61 2.71,2.71 0 0 0 -0.46,1.6700006 v 7.0000003 a 0.19,0.19 0 0 1 -0.21,0.21 h -1.06 a 0.19,0.19 0 0 1 -0.21,-0.21 V 9.9472577 a 2.86,2.86 0 0 0 -0.46,-1.7000006 1.39,1.39 0 0 0 -1.17,-0.62 1.53,1.53 0 0 0 -1.28,0.61 2.65,2.65 0 0 0 -0.48,1.6700006 v 7.0000003 a 0.19,0.19 0 0 1 -0.21,0.21 h -1.06 a 0.19,0.19 0 0 1 -0.21,-0.21 V 6.7172571 c 0,-0.15 0.07,-0.22 0.21,-0.22 h 1.06 c 0.14,0 0.21,0.07 0.21,0.22 v 0.65 c 0,0 0,0 0,0 0,0 0,0 0.07,0 a 2.52,2.52 0 0 1 1,-0.78 2.72,2.72 0 0 1 1.16,-0.25 2.4,2.4 0 0 1 2.31,1.5 0.05,0.05 0 0 0 0.06,0 c 0,0 0,0 0.07,-0.06 a 2.45,2.45 0 0 1 1,-1.12 2.86,2.86 0 0 1 1.4,-0.36 2.3,2.3 0 0 1 1.98,0.99 z"
         id="path14" />
      <path
         class="cls-1"
         d="M 56.249658,16.987258 V 6.7172571 c 0,-0.15 0.07,-0.22 0.21,-0.22 h 1.08 c 0.14,0 0.21,0.07 0.21,0.22 V 16.987258 a 0.19,0.19 0 0 1 -0.21,0.21 h -1.08 a 0.19,0.19 0 0 1 -0.21,-0.21 z"
         id="path16" />
      <path
         class="cls-1"
         d="m 52.03,17.587258 h 1.08 c 0.14,0 0.21,-0.07 0.21,-0.22 V 7.0972571 a 5,5 0 0 0 -1.05,-3.44 4.2,4.2 0 0 0 -3.5,-1.06 0.21,0.21 0 0 0 -0.21,0.23 v 0.91 a 0.19,0.19 0 0 0 0.21,0.21 2.84,2.84 0 0 1 2.37,0.77 3.88,3.88 0 0 1 0.68,2.51 v 0.63 a 0.06,0.06 0 0 1 0,0.06 c 0,0 0,0 -0.08,0 a 2.29,2.29 0 0 0 -0.92,-0.8 2.7,2.7 0 0 0 -1.19,-0.28 2.63,2.63 0 0 0 -2.1,0.89 3.44,3.44 0 0 0 -0.83,2.3300009 v 4.42 a 3.43,3.43 0 0 0 0.8,2.4 2.66,2.66 0 0 0 2.1,0.88 2.69,2.69 0 0 0 1.19,-0.28 2.27,2.27 0 0 0 0.92,-0.79 c 0,0 0.06,-0.06 0.08,0 0.02,0.06 0,0 0,0.07 v 0.61 c 0.03,0.11 0.1,0.22 0.24,0.22 z M 51.32,8.6972571 a 2.08,2.08 0 0 1 0.5,1.4400009 v 4.27 a 2.13,2.13 0 0 1 -0.5,1.47 1.61,1.61 0 0 1 -1.28,0.6 1.67,1.67 0 0 1 -1.34,-0.6 2.08,2.08 0 0 1 -0.5,-1.47 v -4.27 a 2,2 0 0 1 0.5,-1.4400009 1.68,1.68 0 0 1 1.31,-0.57 1.62,1.62 0 0 1 1.31,0.57 z"
         id="path20" />
      <path
         class="cls-1"
         d="m 67.514782,2.6072571 v 0.89 a 0.19,0.19 0 0 1 -0.21,0.21 h -2.79 c -0.06,0 -0.08,0 -0.08,0.09 V 16.987258 a 0.19,0.19 0 0 1 -0.21,0.21 h -1.08 a 0.19,0.19 0 0 1 -0.21,-0.21 V 3.7972571 a 0.08,0.08 0 0 0 -0.09,-0.09 h -2.62 a 0.19,0.19 0 0 1 -0.21,-0.21 v -0.89 a 0.19,0.19 0 0 1 0.21,-0.21 h 7.08 a 0.19,0.19 0 0 1 0.21,0.21 z"
         id="path22" />
      <path
         class="cls-1"
         d="m 74.594782,12.417258 h -4.82 a 0.08,0.08 0 0 0 -0.09,0.09 v 1.54 a 2.11,2.11 0 0 0 0.5,1.45 1.66,1.66 0 0 0 1.3,0.56 1.72,1.72 0 0 0 1.15,-0.41 2,2 0 0 0 0.63,-1.07 0.22,0.22 0 0 1 0.23,-0.19 h 1 a 0.18,0.18 0 0 1 0.15,0.07 0.17,0.17 0 0 1 0,0.17 3,3 0 0 1 -1,2 3.31,3.31 0 0 1 -2.23,0.73 3.24,3.24 0 0 1 -2.4,-0.89 3.13,3.13 0 0 1 -0.9,-2.34 V 9.6072571 a 3.17,3.17 0 0 1 0.9,-2.34 3.68,3.68 0 0 1 4.82,0 3.17,3.17 0 0 1 0.9,2.34 v 2.6000009 a 0.19,0.19 0 0 1 -0.14,0.21 z m -4.4,-4.2100009 a 2.13,2.13 0 0 0 -0.5,1.47 v 1.4100009 a 0.08,0.08 0 0 0 0.09,0.09 h 3.46 a 0.08,0.08 0 0 0 0.09,-0.09 V 9.6772571 a 2.09,2.09 0 0 0 -0.51,-1.47 1.69,1.69 0 0 0 -1.33,-0.6 1.63,1.63 0 0 0 -1.3,0.6 z"
         id="path24" />
      <path
         class="cls-1"
         d="m 77.694782,16.477258 a 3.17,3.17 0 0 1 -0.89,-2.34 V 9.6072571 a 3.13,3.13 0 0 1 0.91,-2.34 3.23,3.23 0 0 1 2.38,-0.9 3.69,3.69 0 0 1 1.76,0.41 2.87,2.87 0 0 1 1.17,1.06 2.73,2.73 0 0 1 0.42,1.47 v 0.22 a 0.19,0.19 0 0 1 -0.22,0.21 h -1.07 c -0.15,0 -0.22,-0.07 -0.22,-0.21 v -0.15 a 1.69,1.69 0 0 0 -0.51,-1.22 1.83,1.83 0 0 0 -1.33,-0.55 1.65,1.65 0 0 0 -1.3,0.56 2.12,2.12 0 0 0 -0.49,1.47 v 4.3500009 a 2.12,2.12 0 0 0 0.49,1.47 1.69,1.69 0 0 0 1.3,0.56 1.79,1.79 0 0 0 1.33,-0.52 1.66,1.66 0 0 0 0.51,-1.21 v -0.15 c 0,-0.14 0.07,-0.21 0.22,-0.21 h 1.07 a 0.19,0.19 0 0 1 0.22,0.21 v 0.23 a 2.74,2.74 0 0 1 -0.92,2.11 3.51,3.51 0 0 1 -2.43,0.83 3.24,3.24 0 0 1 -2.4,-0.83 z"
         id="path26" />
      <path
         class="cls-1"
         d="m 91.334782,7.2372571 a 3.91,3.91 0 0 1 0.71,2.48 v 7.2700009 a 0.19,0.19 0 0 1 -0.21,0.21 h -1.08 a 0.19,0.19 0 0 1 -0.21,-0.21 V 9.8372574 a 2.46,2.46 0 0 0 -0.46,-1.6000003 1.51,1.51 0 0 0 -1.25,-0.57 1.58,1.58 0 0 0 -1.33,0.61 2.71,2.71 0 0 0 -0.47,1.6700006 v 7.0000003 a 0.19,0.19 0 0 1 -0.21,0.21 h -1.08 a 0.19,0.19 0 0 1 -0.21,-0.21 V 2.6072571 a 0.19,0.19 0 0 1 0.21,-0.21 h 1.08 a 0.19,0.19 0 0 1 0.21,0.21 v 4.78 a 0.08,0.08 0 0 0 0,0.07 c 0,0 0,0 0.06,0 a 2.48,2.48 0 0 1 1,-0.79 2.86,2.86 0 0 1 1.23,-0.26 2.41,2.41 0 0 1 2.01,0.83 z"
         id="path28" />
      <circle
         class="cls-2"
         cx="56.97966"
         cy="3.3672569"
         r="1.76"
         id="circle30" />
      <polygon
         class="cls-3"
         points="19.39,13.96 12.06,6.64 4.77,13.94 5.93,15.1 11.23,9.79 11.28,15.12 12.84,15.13 12.93,9.82 18.23,15.12 "
         id="polygon32"
         transform="translate(0,1.6072571)" />
      <polygon
         class="cls-4"
         points="12.93,5.07 22.83,14.97 23.99,13.81 12.06,1.89 0,13.96 1.16,15.12 11.23,5.04 12.06,4.17 "
         id="polygon34"
         transform="translate(0,1.6072571)" />
    </g>
  </g>
</svg>
